<svg width="24" height="24" viewBox="0 0 24 24" fill="none" xmlns="http://www.w3.org/2000/svg">
<rect x="0.2" y="0.2" width="23.6" height="23.6" rx="11.8" fill="#E9F5FF"/>
<path d="M16.75 13.95C16.7664 13.95 16.7782 13.956 16.7861 13.9639C16.794 13.9718 16.8 13.9836 16.8 14V14.5C16.8 15.1562 16.3173 15.6967 15.6866 15.7868C15.581 14.9511 14.8633 14.3 14 14.3C13.1322 14.3 12.4114 14.958 12.3118 15.8H11.6882C11.5886 14.958 10.8678 14.3 10 14.3C9.13672 14.3 8.419 14.9511 8.31338 15.7868C7.68269 15.6967 7.2 15.1562 7.2 14.5V13.5C7.2 13.3355 7.33546 13.2 7.5 13.2H12.25C13.0505 13.2 13.7 12.5505 13.7 11.75V9C13.7 8.83546 13.8355 8.7 14 8.7H14.42C14.7067 8.7 14.9715 8.85529 15.1167 9.10482C15.1168 9.10502 15.1169 9.10522 15.117 9.10543L15.3742 9.55539C14.6326 9.61923 14.05 10.2419 14.05 11V12.5C14.05 13.3005 14.6995 13.95 15.5 13.95H16.75Z" fill="#1091FF" stroke="#1091FF" stroke-width="0.4"/>
<path d="M10.8 16C10.8 16.4418 10.4418 16.8 10 16.8C9.55817 16.8 9.2 16.4418 9.2 16C9.2 15.5582 9.55817 15.2 10 15.2C10.4418 15.2 10.8 15.5582 10.8 16Z" fill="#1091FF" stroke="#1091FF" stroke-width="0.4"/>
<path d="M14.8 16C14.8 16.4418 14.4418 16.8 14 16.8C13.5582 16.8 13.2 16.4418 13.2 16C13.2 15.5582 13.5582 15.2 14 15.2C14.4418 15.2 14.8 15.5582 14.8 16Z" fill="#1091FF" stroke="#1091FF" stroke-width="0.4"/>
<path d="M17 12.265V13H15.5C15.225 13 15 12.775 15 12.5V11C15 10.725 15.225 10.5 15.5 10.5H16.145L16.87 11.77C16.955 11.92 17 12.09 17 12.265Z" fill="#1091FF"/>
<path d="M12.54 7H8.845C7.825 7 7 7.825 7 8.845V12.035C7 12.31 7.225 12.535 7.5 12.535H12.075C12.585 12.535 13 12.12 13 11.61V7.46C13 7.205 12.795 7 12.54 7ZM11.035 9.535L9.99 10.545C9.915 10.615 9.82 10.65 9.73 10.65C9.635 10.65 9.54 10.615 9.47 10.545L8.965 10.065C8.815 9.92 8.81 9.68 8.955 9.53C9.095 9.38 9.335 9.38 9.485 9.52L9.73 9.755L10.515 8.995C10.665 8.85 10.9 8.855 11.045 9.005C11.19 9.155 11.185 9.39 11.035 9.535Z" fill="#1091FF"/>
<rect x="0.2" y="0.2" width="23.6" height="23.6" rx="11.8" stroke="#E0F1FF" stroke-width="0.4"/>
</svg>
