<svg width="173" height="127" viewBox="0 0 173 127" fill="none" xmlns="http://www.w3.org/2000/svg">
<path d="M91.044 121.887C120.744 121.887 144.944 97.7867 144.944 68.1867C144.844 38.4867 120.744 14.3867 91.044 14.3867C61.244 14.3867 37.144 38.4867 37.144 68.0867C37.144 97.7867 61.244 121.887 91.044 121.887Z" fill="#EAEEF9"/>
<path d="M146.244 49.3865C148.508 49.3865 150.344 47.5509 150.344 45.2865C150.344 43.0222 148.508 41.1865 146.244 41.1865C143.98 41.1865 142.144 43.0222 142.144 45.2865C142.144 47.5509 143.98 49.3865 146.244 49.3865Z" fill="#EAEEF9"/>
<path d="M152.244 33.3871C153.79 33.3871 155.044 32.1335 155.044 30.5871C155.044 29.0407 153.79 27.7871 152.244 27.7871C150.698 27.7871 149.444 29.0407 149.444 30.5871C149.444 32.1335 150.698 33.3871 152.244 33.3871Z" fill="#EAEEF9"/>
<path d="M32.544 104.187C35.4159 104.187 37.744 101.859 37.744 98.9871C37.744 96.1152 35.4159 93.7871 32.544 93.7871C29.6721 93.7871 27.344 96.1152 27.344 98.9871C27.344 101.859 29.6721 104.187 32.544 104.187Z" fill="#EAEEF9"/>
<g filter="url(#filter0_d_111_16368)">
<path d="M74.123 81.8957C74.123 86.5453 70.3629 90.3054 65.6728 90.3054C65.592 90.3054 64.9046 90.3054 59.8507 90.3054C56.3332 90.3054 50.7133 90.3054 41.7375 90.3054H37.4518C31.8319 90.4267 27.344 85.9389 27.344 80.5211C27.344 75.0629 31.8723 70.5346 37.5731 70.8176C42.4653 55.5346 64.8642 57.6774 66.7645 73.486C70.9693 74.0116 74.123 77.5696 74.123 81.8957Z" fill="url(#paint0_linear_111_16368)"/>
</g>
<path d="M65.6729 90.3057C70.3224 90.3057 74.123 86.5456 74.123 81.896C74.123 77.2464 70.3224 73.4863 65.6729 73.4863C61.0233 73.4863 57.2227 77.2464 57.2227 81.896C57.2227 86.5456 61.0233 90.3057 65.6729 90.3057Z" fill="url(#paint1_linear_111_16368)"/>
<path d="M51.8858 90.3867C60.1742 90.3867 66.9262 83.6751 66.9262 75.3867C66.9262 67.0983 60.1742 60.3867 51.8858 60.3867C43.5974 60.3867 36.8453 67.0983 36.8453 75.3867C36.8453 83.6751 43.5569 90.3867 51.8858 90.3867Z" fill="url(#paint2_linear_111_16368)"/>
<g filter="url(#filter1_d_111_16368)">
<path d="M87.4895 40.6735C87.4895 47.0878 82.3023 52.275 75.8322 52.275C75.7206 52.275 74.7724 52.275 67.8004 52.275C62.9478 52.275 55.1949 52.275 42.8125 52.275H36.9002C29.1472 52.4423 22.9561 46.2511 22.9561 38.7771C22.9561 31.2472 29.203 25.0003 37.0675 25.3907C43.8165 4.30718 74.7167 7.26333 77.3382 29.072C83.1389 29.797 87.4895 34.7054 87.4895 40.6735Z" fill="url(#paint3_linear_111_16368)"/>
</g>
<path d="M75.8322 52.2743C82.2465 52.2743 87.4895 47.0871 87.4895 40.6728C87.4895 34.2585 82.2465 29.0713 75.8322 29.0713C69.4179 29.0713 64.1749 34.2585 64.1749 40.6728C64.1749 47.0871 69.4179 52.2743 75.8322 52.2743Z" fill="url(#paint4_linear_111_16368)"/>
<path d="M56.8124 52.3862C68.2466 52.3862 77.5613 43.1273 77.5613 31.6931C77.5613 20.2589 68.2466 11 56.8124 11C45.3782 11 36.0635 20.2589 36.0635 31.6931C36.0635 43.1273 45.3224 52.3862 56.8124 52.3862Z" fill="url(#paint5_linear_111_16368)"/>
<path d="M72.4 58.1957C72.4 48.8282 80.031 41.2123 89.4171 41.2123C98.8032 41.2123 106.434 48.8282 106.434 58.1957C106.434 67.5633 98.8032 75.1792 89.4171 75.1792C80.031 75.1792 72.4 67.6394 72.4 58.1957ZM89.4171 26.0566C70.9501 26.0566 55.9171 41.06 55.9171 59.4904C55.9171 72.8944 73.621 98.2553 83.3123 107.699C85.449 109.755 88.3488 110.593 91.0959 110.06C91.3249 110.06 91.4775 109.984 91.7064 109.908C91.7827 109.908 91.859 109.908 91.9353 109.831C93.2326 109.451 94.5299 108.689 95.5982 107.699C103.687 99.7785 117.346 79.0633 121.62 66.5732C122.23 64.7454 122.688 62.9176 122.841 61.1659C122.917 60.5566 122.917 60.0235 122.917 59.4143C122.917 41.0599 107.96 26.0566 89.4171 26.0566Z" fill="url(#paint6_linear_111_16368)"/>
<path d="M89.4171 118.056C75.2998 118.056 60.9536 114.324 60.9536 107.242C60.9536 105.338 62.0219 102.596 67.1346 100.235C68.1267 99.7781 69.195 100.235 69.6529 101.149C70.1107 102.139 69.6529 103.205 68.7371 103.662C65.7611 105.033 64.769 106.404 64.769 107.166C64.769 110.06 74.3841 114.172 89.4171 114.172C104.45 114.172 114.065 109.983 114.065 107.166C114.065 106.175 112.615 104.576 108.647 103.053C107.655 102.672 107.197 101.606 107.579 100.616C107.96 99.6258 109.029 99.1689 110.021 99.5496C116.507 102.063 117.881 105.109 117.881 107.242C117.881 114.324 103.534 118.056 89.4171 118.056Z" fill="#969EAE"/>
<g filter="url(#filter2_d_111_16368)">
<path d="M150.344 85.2952C150.344 89.9447 146.584 93.7049 141.894 93.7049C141.813 93.7049 141.126 93.7049 136.072 93.7049C132.554 93.7049 126.934 93.7049 117.958 93.7049H113.673C108.053 93.8262 103.565 89.3383 103.565 83.9205C103.565 78.4623 108.093 73.934 113.794 74.217C118.686 58.934 141.085 61.0768 142.985 76.8854C147.19 77.4111 150.344 80.969 150.344 85.2952Z" fill="url(#paint7_linear_111_16368)"/>
</g>
<path d="M141.894 93.7052C146.543 93.7052 150.344 89.945 150.344 85.2954C150.344 80.6458 146.543 76.8857 141.894 76.8857C137.244 76.8857 133.444 80.6458 133.444 85.2954C133.444 89.945 137.244 93.7052 141.894 93.7052Z" fill="url(#paint8_linear_111_16368)"/>
<path d="M128.107 93.7861C136.395 93.7861 143.147 87.0745 143.147 78.7861C143.147 70.4977 136.395 63.7861 128.107 63.7861C119.818 63.7861 113.066 70.4977 113.066 78.7861C113.066 87.0745 119.778 93.7861 128.107 93.7861Z" fill="url(#paint9_linear_111_16368)"/>
<defs>
<filter id="filter0_d_111_16368" x="5.34399" y="49.4229" width="90.779" height="73.8848" filterUnits="userSpaceOnUse" color-interpolation-filters="sRGB">
<feFlood flood-opacity="0" result="BackgroundImageFix"/>
<feColorMatrix in="SourceAlpha" type="matrix" values="0 0 0 0 0 0 0 0 0 0 0 0 0 0 0 0 0 0 127 0" result="hardAlpha"/>
<feOffset dy="11"/>
<feGaussianBlur stdDeviation="11"/>
<feColorMatrix type="matrix" values="0 0 0 0 0.397708 0 0 0 0 0.47749 0 0 0 0 0.575 0 0 0 0.27 0"/>
<feBlend mode="normal" in2="BackgroundImageFix" result="effect1_dropShadow_111_16368"/>
<feBlend mode="normal" in="SourceGraphic" in2="effect1_dropShadow_111_16368" result="shape"/>
</filter>
<filter id="filter1_d_111_16368" x="0.956055" y="0.0507812" width="108.533" height="85.2275" filterUnits="userSpaceOnUse" color-interpolation-filters="sRGB">
<feFlood flood-opacity="0" result="BackgroundImageFix"/>
<feColorMatrix in="SourceAlpha" type="matrix" values="0 0 0 0 0 0 0 0 0 0 0 0 0 0 0 0 0 0 127 0" result="hardAlpha"/>
<feOffset dy="11"/>
<feGaussianBlur stdDeviation="11"/>
<feColorMatrix type="matrix" values="0 0 0 0 0.397708 0 0 0 0 0.47749 0 0 0 0 0.575 0 0 0 0.27 0"/>
<feBlend mode="normal" in2="BackgroundImageFix" result="effect1_dropShadow_111_16368"/>
<feBlend mode="normal" in="SourceGraphic" in2="effect1_dropShadow_111_16368" result="shape"/>
</filter>
<filter id="filter2_d_111_16368" x="81.5649" y="52.8223" width="90.779" height="73.8848" filterUnits="userSpaceOnUse" color-interpolation-filters="sRGB">
<feFlood flood-opacity="0" result="BackgroundImageFix"/>
<feColorMatrix in="SourceAlpha" type="matrix" values="0 0 0 0 0 0 0 0 0 0 0 0 0 0 0 0 0 0 127 0" result="hardAlpha"/>
<feOffset dy="11"/>
<feGaussianBlur stdDeviation="11"/>
<feColorMatrix type="matrix" values="0 0 0 0 0.397708 0 0 0 0 0.47749 0 0 0 0 0.575 0 0 0 0.27 0"/>
<feBlend mode="normal" in2="BackgroundImageFix" result="effect1_dropShadow_111_16368"/>
<feBlend mode="normal" in="SourceGraphic" in2="effect1_dropShadow_111_16368" result="shape"/>
</filter>
<linearGradient id="paint0_linear_111_16368" x1="50.7335" y1="72.7725" x2="50.7182" y2="90.63" gradientUnits="userSpaceOnUse">
<stop stop-color="white"/>
<stop offset="0.9964" stop-color="#ECF0F5"/>
</linearGradient>
<linearGradient id="paint1_linear_111_16368" x1="56.3235" y1="71.6757" x2="63.8145" y2="79.8686" gradientUnits="userSpaceOnUse">
<stop stop-color="#BCCBE1"/>
<stop offset="0.9942" stop-color="white" stop-opacity="0"/>
</linearGradient>
<linearGradient id="paint2_linear_111_16368" x1="35.4369" y1="68.5036" x2="47.2434" y2="73.1238" gradientUnits="userSpaceOnUse">
<stop stop-color="#E2E8F0"/>
<stop offset="0.9942" stop-color="white" stop-opacity="0"/>
</linearGradient>
<linearGradient id="paint3_linear_111_16368" x1="55.2228" y1="28.0876" x2="55.2017" y2="52.7228" gradientUnits="userSpaceOnUse">
<stop stop-color="white"/>
<stop offset="0.9964" stop-color="#ECF0F5"/>
</linearGradient>
<linearGradient id="paint4_linear_111_16368" x1="62.9344" y1="26.5735" x2="73.2685" y2="37.8759" gradientUnits="userSpaceOnUse">
<stop stop-color="#BCCBE1"/>
<stop offset="0.9942" stop-color="white" stop-opacity="0"/>
</linearGradient>
<linearGradient id="paint5_linear_111_16368" x1="34.1206" y1="22.1976" x2="50.408" y2="28.5714" gradientUnits="userSpaceOnUse">
<stop stop-color="#E2E8F0"/>
<stop offset="0.9942" stop-color="white" stop-opacity="0"/>
</linearGradient>
<linearGradient id="paint6_linear_111_16368" x1="89.4224" y1="28.9803" x2="89.4224" y2="76.2184" gradientUnits="userSpaceOnUse">
<stop stop-color="#B0BACC"/>
<stop offset="1" stop-color="#969EAE"/>
</linearGradient>
<linearGradient id="paint7_linear_111_16368" x1="126.954" y1="76.1719" x2="126.939" y2="94.0294" gradientUnits="userSpaceOnUse">
<stop stop-color="white"/>
<stop offset="0.9964" stop-color="#ECF0F5"/>
</linearGradient>
<linearGradient id="paint8_linear_111_16368" x1="132.544" y1="75.0751" x2="140.035" y2="83.268" gradientUnits="userSpaceOnUse">
<stop stop-color="#BCCBE1"/>
<stop offset="0.9942" stop-color="white" stop-opacity="0"/>
</linearGradient>
<linearGradient id="paint9_linear_111_16368" x1="111.658" y1="71.903" x2="123.464" y2="76.5233" gradientUnits="userSpaceOnUse">
<stop stop-color="#E2E8F0"/>
<stop offset="0.9942" stop-color="white" stop-opacity="0"/>
</linearGradient>
</defs>
</svg>
